<svg width="48" height="51" viewBox="0 0 48 51" fill="none" xmlns="http://www.w3.org/2000/svg">
<path d="M37.2831 28.8704C40.8055 32.0661 39.7538 36.5704 33.4057 47.7469C32.9486 48.5517 31.7281 48.3404 31.5224 47.4381C27.9424 31.732 20.231 25.2179 3.66292 24.2071C2.74171 24.1509 2.33739 22.9865 3.05529 22.4065C12.7153 14.6022 16.881 13.1661 21.0414 15.2859M37.2831 28.8704C44.0946 20.6523 45.7684 14.6998 45.9824 3.25205C45.9944 2.61115 45.4022 2.12843 44.7767 2.26863C33.8793 4.71118 28.2999 7.37544 21.0414 15.2859M37.2831 28.8704C35.6548 30.7379 34.5139 31.8313 32.9863 32.7776C32.2891 33.2095 31.4627 32.5765 31.7604 31.8124C32.5853 29.6945 34.098 29.0167 37.2831 28.8704ZM21.0414 15.2859C19.5081 17.0819 18.646 18.8077 18.1373 20.344C17.8792 21.1232 18.6948 21.7592 19.3721 21.2955C21.3276 19.9567 21.5491 18.4825 21.0414 15.2859Z" stroke="#1F1F1F" stroke-width="4"/>
<path d="M12.247 44.835C15.7855 44.1348 17.9452 43.0818 20.5965 40.313C20.9197 39.9754 20.9519 39.4535 20.6744 39.0773C18.8961 36.6667 17.4921 35.5225 15.1092 34.3688C14.6881 34.1649 14.1811 34.2945 13.9114 34.6768C11.8054 37.6614 11.17 40.0257 11.0989 43.8709C11.0875 44.4858 11.6437 44.9543 12.247 44.835Z" fill="#2986CC" stroke="#2986CC" stroke-width="4" stroke-linecap="round"/>
</svg>
