<svg width="286" height="295" viewBox="0 0 286 295" fill="none" xmlns="http://www.w3.org/2000/svg">
<path d="M10.5869 145.235C72.3313 93.8382 97.4742 84.4791 122.091 97.0223M212.056 172.269C250.895 125.41 259.578 91.8492 260.327 24.6959C260.334 24.0549 259.73 23.5612 259.103 23.697C195.056 37.5842 163.509 51.8845 122.091 97.0223M212.056 172.269C200.472 185.554 193.341 191.767 180.407 198.265C179.674 198.633 178.843 198.002 179.01 197.199C182.884 178.567 190.655 173.251 212.056 172.269ZM122.091 97.0223C110.566 110.522 105.887 123.305 103.655 133.722C103.483 134.525 104.308 135.16 105.042 134.793C123.015 125.809 125.472 118.312 122.091 97.0223Z" stroke="white" stroke-width="17" stroke-linecap="round"/>
<path fill-rule="evenodd" clip-rule="evenodd" d="M12.9974 136.453C7.59035 136.456 3.07713 140.806 3.07467 146.213C3.07758 151.62 6.13638 155.823 11.5435 155.826C25.5481 155.517 39.5249 157.005 52.991 160.983C95.0602 173.409 124.536 188.481 149.06 223.373C125.766 180.948 92.3981 154.054 43.7233 140.469C33.1535 137.516 23.934 136.687 12.9974 136.453Z" fill="white"/>
<path fill-rule="evenodd" clip-rule="evenodd" d="M212.465 161.22C209.852 160.84 210.116 165.239 207.834 166.939C203.263 170.345 199.251 172.937 202.651 177.507C225.811 206.433 204.036 246.774 188.4 273.906C185.001 279.808 181.664 285.72 178.26 291.616C194.993 270.822 213.142 250.332 223.679 225.481C232.757 204.068 232.718 184.326 219.26 165.175C217.56 162.893 215.072 161.599 212.465 161.22Z" fill="white"/>
<path d="M73.1074 253.055C72.3416 229.048 76.805 215.599 88.5179 197.397C89.1664 196.389 87.7974 195.238 86.9361 196.071C62.4938 219.724 52.0035 236.272 59.5564 270.512C59.6586 270.975 60.0907 271.313 60.565 271.301C96.4205 270.396 110.494 257.378 127.63 229.993C128.271 228.969 126.83 227.877 125.988 228.743C110.659 244.484 98.314 251.578 74.208 254.018C73.6366 254.076 73.1257 253.629 73.1074 253.055Z" fill="#1887DB"/>
</svg>
