<svg width="71" height="55" viewBox="0 0 71 55" fill="none" xmlns="http://www.w3.org/2000/svg">
<g clip-path="url(#clip0_2404_1314)">
<path d="M60.1045 4.89792C55.5792 2.82152 50.7265 1.29172 45.6527 0.415541C45.5603 0.398631 45.468 0.44089 45.4204 0.52541C44.7963 1.63542 44.105 3.08352 43.6209 4.22172C38.1637 3.40472 32.7345 3.40472 27.3892 4.22172C26.905 3.05822 26.1886 1.63542 25.5617 0.52541C25.5141 0.44371 25.4218 0.401451 25.3294 0.415541C20.2584 1.28892 15.4057 2.81872 10.8776 4.89792C10.8384 4.91482 10.8048 4.94302 10.7825 4.97962C1.57795 18.731 -0.943561 32.1444 0.293408 45.3915C0.299005 45.4563 0.335386 45.5183 0.385761 45.5577C6.45866 50.0175 12.3413 52.725 18.1147 54.5196C18.2071 54.5478 18.305 54.514 18.3638 54.4379C19.7295 52.5729 20.9469 50.6064 21.9907 48.5384C22.0523 48.4173 21.9935 48.2736 21.8676 48.2257C19.9366 47.4932 18.0979 46.6001 16.3292 45.5859C16.1893 45.5042 16.1781 45.3041 16.3068 45.2083C16.679 44.9294 17.0513 44.6392 17.4067 44.3462C17.471 44.2927 17.5606 44.2814 17.6362 44.3152C29.2558 49.6203 41.8354 49.6203 53.3179 44.3152C53.3935 44.2786 53.4831 44.2899 53.5502 44.3434C53.9057 44.6364 54.2779 44.9294 54.6529 45.2083C54.7816 45.3041 54.7732 45.5042 54.6333 45.5859C52.8646 46.6198 51.0259 47.4932 49.0921 48.2229C48.9662 48.2708 48.9102 48.4173 48.9718 48.5384C50.038 50.6035 51.2554 52.57 52.5959 54.4351C52.6519 54.514 52.7526 54.5478 52.845 54.5196C58.6464 52.725 64.529 50.0175 70.6019 45.5577C70.6551 45.5183 70.6887 45.4591 70.6943 45.3943C72.1747 30.0792 68.2147 16.7758 60.1968 4.98242C60.1772 4.94302 60.1437 4.91482 60.1045 4.89792ZM23.7259 37.3254C20.2276 37.3254 17.3451 34.1137 17.3451 30.1694C17.3451 26.2251 20.1717 23.0134 23.7259 23.0134C27.308 23.0134 30.1626 26.2533 30.1066 30.1694C30.1066 34.1137 27.28 37.3254 23.7259 37.3254ZM47.3178 37.3254C43.8196 37.3254 40.9371 34.1137 40.9371 30.1694C40.9371 26.2251 43.7636 23.0134 47.3178 23.0134C50.9 23.0134 53.7545 26.2533 53.6986 30.1694C53.6986 34.1137 50.9 37.3254 47.3178 37.3254Z" fill="#707070"/>
</g>
<defs>
<clipPath id="clip0_2404_1314">
<rect width="71" height="55" fill="white"/>
</clipPath>
</defs>
</svg>
