<svg width="128" height="128" viewBox="0 0 128 128" fill="none" xmlns="http://www.w3.org/2000/svg">
<path d="M64 128C99.3462 128 128 99.3462 128 64C128 28.6538 99.3462 0 64 0C28.6538 0 0 28.6538 0 64C0 99.3462 28.6538 128 64 128Z" fill="#627EEA"/>
<path d="M65.9941 15.9912V51.4729L95.9821 64.8748L65.9941 15.9912Z" fill="white" fill-opacity="0.602"/>
<path d="M65.9948 15.9912L36.0068 64.8748L65.9948 51.4729V15.9912Z" fill="white"/>
<path d="M65.9941 87.8645V111.974L95.9996 70.4561L65.9941 87.8645Z" fill="white" fill-opacity="0.602"/>
<path d="M65.9948 111.974V87.8645L36.0068 70.4561L65.9948 111.974Z" fill="white"/>
<path d="M65.9941 82.2829L95.9821 64.8745L65.9941 51.4727V82.2829Z" fill="white" fill-opacity="0.2"/>
<path d="M36.0068 64.8745L65.9948 82.2829V51.4727L36.0068 64.8745Z" fill="white" fill-opacity="0.602"/>
</svg>
