<svg width="128" height="128" viewBox="0 0 128 128" fill="none" xmlns="http://www.w3.org/2000/svg">
<path d="M64 128C99.3462 128 128 99.3462 128 64C128 28.6538 99.3462 0 64 0C28.6538 0 0 28.6538 0 64C0 99.3462 28.6538 128 64 128Z" fill="white"/>
<path d="M85.1822 50.3078C83.6472 49.4148 81.6516 49.4148 79.9631 50.3078L67.9896 57.1543L59.8538 61.6194L47.8804 68.4659C46.3453 69.3589 44.3498 69.3589 42.6612 68.4659L33.1438 63.1078C31.6088 62.2148 30.5343 60.5775 30.5343 58.7915V48.224C30.5343 46.438 31.4553 44.8008 33.1438 43.9078L42.5077 38.6984C44.0427 37.8054 46.0383 37.8054 47.7269 38.6984L57.0907 43.9078C58.6258 44.8008 59.7003 46.438 59.7003 48.224V55.0705L67.8361 50.4567V43.61C67.8361 41.824 66.9151 40.1868 65.2266 39.2938L47.8804 29.4705C46.3453 28.5775 44.3498 28.5775 42.6612 29.4705L25.0081 39.2938C23.3194 40.1868 22.3984 41.824 22.3984 43.61V63.4054C22.3984 65.1915 23.3194 66.8287 25.0081 67.7217L42.6612 77.545C44.1963 78.438 46.1918 78.438 47.8804 77.545L59.8538 70.8473L67.9896 66.2333L79.9631 59.5357C81.4981 58.6427 83.4937 58.6427 85.1822 59.5357L94.5461 64.745C96.0811 65.638 97.1557 67.2752 97.1557 69.0613V79.6287C97.1557 81.4148 96.2346 83.0519 94.5461 83.945L85.1822 89.3032C83.6472 90.1962 81.6516 90.1962 79.9631 89.3032L70.5992 84.0938C69.0642 83.2008 67.9896 81.5635 67.9896 79.7775V72.931L59.8538 77.545V84.3915C59.8538 86.1775 60.7748 87.8148 62.4634 88.7078L80.1166 98.531C81.6516 99.424 83.6472 99.424 85.3357 98.531L102.989 88.7078C104.524 87.8148 105.598 86.1775 105.598 84.3915V64.5962C105.598 62.81 104.677 61.1729 102.989 60.2799L85.1822 50.3078Z" fill="#8247E5"/>
</svg>
