<svg width="71" height="71" viewBox="0 0 71 71" fill="none" xmlns="http://www.w3.org/2000/svg">
<g clip-path="url(#clip0_2406_1341)">
<path d="M63.7366 21.0213C63.7659 21.6437 63.7806 22.2682 63.7806 22.901C63.7806 42.1536 49.1279 64.3505 22.3311 64.3505C14.0994 64.3505 6.44618 61.9427 -0.0020752 57.8059C1.14214 57.9379 2.30102 58.005 3.47248 58.005C10.3042 58.005 16.5786 55.6851 21.562 51.7726C15.1933 51.651 9.81177 47.4451 7.95923 41.6548C8.84778 41.8267 9.75728 41.9168 10.7003 41.9168C12.031 41.9168 13.3157 41.7408 14.5353 41.4055C7.8775 40.0664 2.85008 34.1797 2.85008 27.1237C2.85008 27.063 2.85008 27.0022 2.85008 26.9414C4.81788 28.0332 7.0623 28.6871 9.45132 28.7625C5.54506 26.1535 2.97372 21.6898 2.97372 16.6351C2.97372 13.9653 3.69252 11.4652 4.94362 9.31087C12.1253 18.1251 22.8655 23.9237 34.9677 24.5314C34.7225 23.4648 34.5905 22.3562 34.5905 21.212C34.5905 13.1689 41.1121 6.64941 49.1614 6.64941C53.3485 6.64941 57.1353 8.41813 59.7863 11.243C63.1016 10.5913 66.2241 9.37793 69.0406 7.7098C67.9488 11.1131 65.6436 13.9674 62.6343 15.7654C65.5807 15.4175 68.3889 14.6338 70.9979 13.477C69.049 16.4004 66.5803 18.9654 63.7366 21.0213Z" fill="white"/>
</g>
<defs>
<clipPath id="clip0_2406_1341">
<rect width="71" height="71" fill="white"/>
</clipPath>
</defs>
</svg>
